PathFileType	4	(X/Y/Z)	results/motion.trc
DataRate	CameraRate	NumFrames	NumMarkers	Units	OrigDataRate	OrigDataStartFrame	OrigNumFrames
27	27	7	20	mm	27	384	614
Frame#	Time	NUI_SKELETON_POSITION_HIP_CENTER	NUI_SKELETON_POSITION_HIP_RIGHT	NUI_SKELETON_POSITION_HIP_LEFT	NUI_SKELETON_POSITION_KNEE_RIGHT	NUI_SKELETON_POSITION_KNEE_LEFT	NUI_SKELETON_POSITION_ANKLE_RIGHT	NUI_SKELETON_POSITION_ANKLE_LEFT	NUI_SKELETON_POSITION_FOOT_RIGHT	NUI_SKELETON_POSITION_FOOT_LEFT	NUI_SKELETON_POSITION_SPINE	NUI_SKELETON_POSITION_SHOULDER_RIGHT	NUI_SKELETON_POSITION_SHOULDER_LEFT	NUI_SKELETON_POSITION_ELBOW_RIGHT	NUI_SKELETON_POSITION_ELBOW_LEFT	NUI_SKELETON_POSITION_WRIST_RIGHT	NUI_SKELETON_POSITION_WRIST_LEFT	NUI_SKELETON_POSITION_HAND_RIGHT	NUI_SKELETON_POSITION_HAND_LEFT	NUI_SKELETON_POSITION_SHOULDER_CENTER	NUI_SKELETON_POSITION_HEAD
X1	Y1	Z1	X2	Y2	Z2	X3	Y3	Z3	X4	Y4	Z4	X5	Y5	Z5	X6	Y6	Z6	X7	Y7	Z7	X8	Y8	Z8	X9	Y9	Z9	X10	Y10	Z10	X11	Y11	Z11	X12	Y12	Z12	X13	Y13	Z13	X14	Y14	Z14	X15	Y15	Z15	X16	Y16	Z16	X17	Y17	Z17	X18	Y18	Z18	X19	Y19	Z19	X20	Y20	Z20	
384	13.463000	-99.086747	-129.595935	2652.552366	-16.382145	-207.600519	2639.436483	-182.111919	-209.011123	2644.819975	-8.632800	-602.484286	2622.363567	-204.084575	-599.140704	2703.823090	21.733051	-919.214249	2585.294485	-244.438246	-902.896345	2906.331062	37.383825	-987.886310	2510.078430	-251.386315	-942.907989	2842.425108	-96.973322	-66.684976	2699.059010	85.155994	162.587702	2680.981636	-272.144914	160.417020	2718.710184	264.636725	15.062911	2689.881086	-457.499087	26.781935	2766.629934	455.588102	34.483865	2627.510309	-658.127308	43.163747	2717.123270	483.276218	55.428762	2610.021353	-709.790647	52.552100	2693.186045	-98.427489	276.544392	2692.114115	-110.220566	454.637378	2681.350946	
385	13.481000	-90.374909	-129.439294	2639.863253	-7.900191	-207.345188	2626.391888	-173.414826	-208.854422	2632.618427	-4.316622	-602.412581	2615.145206	-196.633413	-600.186229	2679.492950	21.506850	-920.000374	2583.676815	-242.621467	-904.816747	2879.871130	36.964621	-989.162564	2509.998083	-252.422482	-946.693003	2824.974537	-87.852150	-66.580817	2686.904192	94.303541	163.191646	2667.540312	-262.411028	160.689369	2706.274033	275.034130	17.028049	2675.598860	-447.921902	26.617400	2755.486727	465.669572	37.031572	2613.733530	-648.898065	43.543749	2707.970619	490.288734	58.163792	2597.600460	-699.245214	53.224873	2683.678150	-88.996604	276.987940	2679.190636	-101.738565	455.285192	2669.460535	
386	13.513000	-82.408763	-129.262492	2628.246546	-0.180093	-207.090288	2614.481688	-165.483683	-208.661392	2621.540308	-0.244373	-602.315068	2608.573675	-190.079346	-601.318896	2657.197714	21.319693	-920.797527	2582.334042	-241.067275	-907.116234	2850.748301	36.569312	-990.430653	2510.253906	-253.768772	-950.932562	2805.973768	-79.457089	-66.414528	2675.634861	102.691472	163.773492	2655.034304	-253.345877	161.107153	2694.591999	284.496039	19.056018	2662.428856	-439.212829	26.639881	2745.061398	474.833041	39.443530	2601.222277	-640.214324	44.140134	2698.852062	496.744066	60.817070	2586.172342	-689.370632	54.049533	2674.081087	-80.162279	277.466029	2666.867733	-93.662232	455.903620	2657.880306	
387	13.549000	-75.129330	-129.052013	2617.581844	6.865041	-206.806213	2603.555679	-158.235922	-208.428189	2611.412764	3.572392	-602.202535	2602.610350	-184.466258	-602.531493	2636.979103	21.168591	-921.602070	2581.245899	-239.994481	-909.295857	2815.249205	36.195844	-991.684794	2510.797262	-253.467262	-953.393281	2768.014193	-71.754538	-66.202141	2665.194988	110.338852	164.379209	2643.449068	-245.021120	161.568001	2683.772326	293.070823	21.046119	2650.405407	-431.171149	26.806697	2735.185385	483.157307	41.924503	2589.774847	-631.979585	44.935487	2689.792633	502.767146	63.409641	2575.607777	-679.597497	55.102821	2664.609909	-72.098553	277.937919	2655.469894	-86.062036	456.513971	2646.671534	
388	13.582000	-68.503469	-128.828645	2607.806444	13.261357	-206.517234	2593.586922	-151.643991	-208.185926	2602.165222	7.146195	-602.059722	2597.185135	-179.663405	-603.736341	2618.900776	21.049261	-922.407985	2580.391645	-239.201754	-911.507487	2781.526327	35.839874	-992.905498	2511.554003	-256.349832	-959.302962	2737.118483	-64.706795	-65.952756	2655.506611	117.274672	164.994895	2632.758379	-237.456366	161.998585	2673.812389	300.968558	23.031993	2639.359236	-423.804730	27.063273	2725.945711	490.826041	44.275720	2579.367876	-624.203622	45.861445	2680.828810	508.275092	65.901741	2565.974712	-670.502186	56.165595	2655.673027	-64.706415	278.403699	2644.764662	-79.107702	457.114965	2636.256456	
389	13.616000	-62.528536	-128.587350	2598.901272	19.020909	-206.222609	2584.545135	-145.682752	-207.921922	2593.703032	10.451945	-601.910233	2592.285156	-175.572708	-604.877591	2602.901936	20.959686	-923.212588	2579.751968	-238.474160	-913.881958	2748.516083	35.514042	-994.107544	2512.562037	-259.234220	-965.165377	2708.631992	-58.338039	-65.678321	2646.619320	123.492964	165.608719	2623.014927	-230.662689	162.424788	2664.741516	308.057815	24.870168	2629.428625	-417.016327	27.420033	2717.010260	497.737825	46.548180	2569.900513	-616.948903	46.874642	2671.919107	513.228297	68.210490	2557.309628	-662.424862	57.283036	2646.791935	-58.067691	278.866321	2635.019064	-72.744094	457.708001	2626.529932	
390	13.649000	-57.202760	-128.360391	2590.806246	24.144486	-205.964401	2576.355696	-140.377432	-207.673028	2585.998774	13.505133	-601.759017	2587.858200	-172.071710	-605.893672	2588.807583	20.897098	-924.013913	2579.308748	-237.349555	-914.604545	2715.890646	35.205718	-995.267868	2513.725281	-258.482933	-966.023803	2672.205210	-52.667640	-65.414160	2638.491392	129.060358	166.176200	2614.198685	-224.577963	162.868872	2656.267881	314.490527	26.580421	2620.413780	-410.852164	27.853962	2708.472490	504.026115	48.727933	2561.274290	-610.201120	47.954969	2662.940741	517.707705	70.345245	2549.474239	-655.148447	58.376506	2638.243437	-52.113302	279.294044	2626.106262	-66.937082	458.286375	2617.371321	
